<svg width="24" height="24" viewBox="0 0 24 24" fill="none" xmlns="http://www.w3.org/2000/svg">
<path d="M3.16797 8.20809V5.85609C3.16797 5.32809 3.74397 4.94409 4.41597 4.94409H19.584C20.256 4.94409 20.832 5.37609 20.832 5.85609V8.20809" stroke="black" stroke-miterlimit="10" stroke-linecap="round" stroke-linejoin="round"/>
<path d="M0.864014 9.31209V2.30409C0.864014 1.77609 1.29601 1.39209 1.77601 1.39209H6.14401C6.67201 1.39209 7.05601 1.82409 7.05601 2.30409V3.36009H21.072C22.224 3.36009 23.136 4.27209 23.136 5.42409V9.64809" stroke="black" stroke-miterlimit="10" stroke-linecap="round" stroke-linejoin="round"/>
<path d="M0.864014 9.64801V21.264C0.864014 22.032 1.48801 22.656 2.25601 22.656H21.792C22.56 22.656 23.184 22.032 23.184 21.264V9.64801C23.184 8.88001 22.56 8.25601 21.792 8.25601H2.25601C1.48801 8.20801 0.864014 8.83201 0.864014 9.64801Z" stroke="black" stroke-miterlimit="10" stroke-linecap="round" stroke-linejoin="round"/>
<path d="M2.92798 10.3201H4.36798V11.7601H2.92798V10.3201ZM6.04798 10.3201H7.48798V11.7601H6.04798V10.3201ZM9.21598 10.3201H10.656V11.7601H9.21598V10.3201ZM18.672 20.3521H14.208H18.672ZM21.312 20.3521H20.064H21.312ZM19.92 18.3361H14.208H19.92ZM21.312 16.2721H14.208H21.312Z" fill="black"/>
<path d="M18.672 20.3521H14.208M21.312 20.3521H20.064M19.92 18.3361H14.208M21.312 16.2721H14.208M2.92798 10.3201H4.36798V11.7601H2.92798V10.3201ZM6.04798 10.3201H7.48798V11.7601H6.04798V10.3201ZM9.21598 10.3201H10.656V11.7601H9.21598V10.3201Z" stroke="black" stroke-width="0.72" stroke-miterlimit="10" stroke-linecap="round" stroke-linejoin="round"/>
</svg>
