<svg width="20" height="20" viewBox="0 0 20 20" fill="none" xmlns="http://www.w3.org/2000/svg">
<path fill-rule="evenodd" clip-rule="evenodd" d="M8.75003 1.66675C7.62052 1.66684 6.50741 1.93705 5.50358 2.45483C4.49974 2.9726 3.63427 3.72293 2.97939 4.64321C2.32451 5.56349 1.8992 6.62704 1.73895 7.74512C1.5787 8.8632 1.68815 10.0034 2.05818 11.0706C2.4282 12.1377 3.04807 13.101 3.86606 13.8799C4.68405 14.6587 5.67645 15.2307 6.76046 15.5481C7.84446 15.8654 8.98865 15.919 10.0975 15.7042C11.2064 15.4894 12.2479 15.0126 13.135 14.3134L16.1784 17.3567C16.3355 17.5085 16.546 17.5925 16.7645 17.5906C16.983 17.5887 17.192 17.5011 17.3465 17.3466C17.501 17.1921 17.5887 16.9831 17.5906 16.7646C17.5925 16.5461 17.5085 16.3356 17.3567 16.1784L14.3134 13.1351C15.1367 12.0906 15.6493 10.8354 15.7926 9.51319C15.9359 8.19096 15.704 6.8551 15.1235 5.65849C14.5431 4.46189 13.6374 3.45288 12.5103 2.74694C11.3831 2.041 10.08 1.66666 8.75003 1.66675ZM3.33336 8.75008C3.33336 7.31349 3.90404 5.93574 4.91987 4.91992C5.93569 3.9041 7.31344 3.33341 8.75003 3.33341C10.1866 3.33341 11.5644 3.9041 12.5802 4.91992C13.596 5.93574 14.1667 7.31349 14.1667 8.75008C14.1667 10.1867 13.596 11.5644 12.5802 12.5802C11.5644 13.5961 10.1866 14.1667 8.75003 14.1667C7.31344 14.1667 5.93569 13.5961 4.91987 12.5802C3.90404 11.5644 3.33336 10.1867 3.33336 8.75008Z" fill="#393939"/>
</svg>
