<svg width="22" height="22" viewBox="0 0 22 22" fill="none" xmlns="http://www.w3.org/2000/svg">
<path d="M19.3625 10.1421C19.2594 9.56318 19.1562 8.98428 19.0531 8.40772L18.9828 8.94912C19.4633 8.31631 19.9414 7.68115 20.4219 7.04834C20.4898 6.95928 20.5578 6.87022 20.6258 6.77881C20.7172 6.65928 20.7289 6.47178 20.7102 6.33115C20.6891 6.16709 20.6211 6.05693 20.5156 5.92803C19.8078 5.04912 19.1023 4.17022 18.3945 3.29131C18.2961 3.16943 18.1977 3.04521 18.0992 2.92334C17.9586 2.7499 17.6234 2.6585 17.4148 2.74287C16.6461 3.0499 15.875 3.35928 15.1062 3.66631C14.9984 3.71084 14.8883 3.75303 14.7805 3.79756L15.3219 3.86787L14.0211 3.18584C14.1289 3.32647 14.2367 3.46709 14.3445 3.60537C14.1266 2.87178 13.9109 2.14053 13.693 1.40693C13.6625 1.30381 13.632 1.19834 13.6016 1.09521C13.5125 0.797559 13.2359 0.57959 12.9242 0.57959H9.08281C8.76874 0.57959 8.49218 0.799902 8.40546 1.09521C8.18749 1.82881 7.97187 2.56006 7.7539 3.29365C7.72343 3.39678 7.69296 3.50225 7.66249 3.60537C7.77031 3.46475 7.87812 3.32412 7.98593 3.18584L6.68515 3.86787L7.22656 3.79756C6.45781 3.49053 5.68671 3.18115 4.91796 2.87412C4.81015 2.82959 4.69999 2.7874 4.59218 2.74287C4.38359 2.66084 4.04843 2.7499 3.90781 2.92334C3.19999 3.80225 2.49453 4.68115 1.78671 5.56006C1.68828 5.68193 1.58984 5.80615 1.4914 5.92803C1.39062 6.05225 1.32031 6.16943 1.29687 6.33115C1.27812 6.47178 1.28984 6.66162 1.38124 6.77881C1.86171 7.41162 2.33984 8.04678 2.82031 8.67959C2.88828 8.76865 2.95624 8.85772 3.02421 8.94912L2.9539 8.40772C2.85078 8.98662 2.74765 9.56553 2.64453 10.1421C2.75234 10.0015 2.86015 9.86084 2.96796 9.72256C2.26249 10.0765 1.55468 10.428 0.849213 10.7819C0.750775 10.8312 0.649994 10.8804 0.551556 10.9319C0.263275 11.0772 0.167182 11.4335 0.228119 11.7265C0.446088 12.7694 0.664056 13.8101 0.879681 14.853C0.91015 14.9983 0.940619 15.1437 0.971088 15.2913C1.03906 15.6124 1.35312 15.7812 1.64843 15.8069C2.46171 15.8796 3.27265 15.9522 4.08593 16.0226C4.20312 16.0319 4.32031 16.0437 4.43749 16.053C4.23593 15.9358 4.03203 15.821 3.83046 15.7038C4.13046 16.1163 4.43046 16.5312 4.72812 16.9437C4.69531 16.8265 4.66484 16.7069 4.63203 16.5897C4.54062 17.3397 4.45156 18.0921 4.36015 18.8421C4.34843 18.9476 4.33437 19.0554 4.32265 19.1608C4.29687 19.3835 4.47265 19.6741 4.67187 19.7679L7.57578 21.153C7.71406 21.2187 7.84999 21.2843 7.98828 21.3499C8.26718 21.4835 8.61406 21.4788 8.8414 21.2397C9.35703 20.6983 9.87265 20.1546 10.3859 19.6132C10.4586 19.5358 10.5336 19.4585 10.6062 19.3812C10.4398 19.4491 10.2758 19.5194 10.1094 19.5874H11.907C11.7406 19.5194 11.5766 19.4491 11.4102 19.3812C11.9258 19.9226 12.4414 20.4663 12.9547 21.0077C13.0273 21.0851 13.1023 21.1624 13.175 21.2397C13.4047 21.4812 13.7469 21.4835 14.0281 21.3499L16.932 19.9647C17.0703 19.8991 17.2062 19.8335 17.3445 19.7679C17.5437 19.6741 17.7195 19.3835 17.6937 19.1608C17.6023 18.4108 17.5133 17.6585 17.4219 16.9085C17.4102 16.803 17.3961 16.6952 17.3844 16.5897C17.3516 16.7069 17.3211 16.8265 17.2883 16.9437C17.5883 16.5312 17.8883 16.1163 18.1883 15.7038C17.9867 15.821 17.7828 15.9358 17.5812 16.053C18.3945 15.9804 19.2055 15.9077 20.0187 15.8374C20.1359 15.828 20.2531 15.8163 20.3703 15.8069C20.6656 15.7812 20.982 15.6077 21.0477 15.2913C21.2656 14.2483 21.4836 13.2077 21.6992 12.1647C21.7297 12.0194 21.7602 11.8741 21.7906 11.7265C21.8516 11.4358 21.7555 11.0772 21.4672 10.9319C20.7617 10.578 20.0539 10.2265 19.3484 9.87256C19.25 9.82334 19.1492 9.77412 19.0508 9.72256C18.7227 9.5585 18.275 9.62412 18.0898 9.97568C17.9211 10.2944 17.9914 10.7632 18.343 10.9366C19.0484 11.2905 19.7562 11.6421 20.4617 11.996C20.5602 12.0452 20.6609 12.0944 20.7594 12.146L20.4359 11.3515C20.218 12.3944 20 13.4351 19.7844 14.478C19.7539 14.6233 19.7234 14.7687 19.693 14.9163C19.918 14.7452 20.1453 14.5718 20.3703 14.4007C19.4422 14.4827 18.5117 14.5577 17.5859 14.6491C17.307 14.6772 17.1383 14.7757 16.9742 14.9983C16.9578 15.0194 16.9414 15.0429 16.925 15.0663L16.7 15.3757C16.5195 15.6241 16.3391 15.8726 16.1609 16.121C16.0578 16.264 15.9687 16.3952 15.9805 16.5921C15.9828 16.6366 15.9922 16.6812 15.9969 16.7257C16.0273 16.9882 16.0602 17.2483 16.0906 17.5108C16.1562 18.0616 16.2242 18.6124 16.2898 19.1632C16.407 18.9616 16.5219 18.7577 16.6391 18.5562L13.7352 19.9413C13.5969 20.0069 13.4609 20.0726 13.3227 20.1382C13.6062 20.1757 13.8898 20.2108 14.1758 20.2483C13.85 19.9038 13.5219 19.5616 13.1961 19.2171C12.9922 19.0038 12.7906 18.7905 12.5867 18.5772C12.3852 18.364 12.2211 18.1882 11.8812 18.1835C11.3351 18.1741 10.7891 18.1835 10.243 18.1835C10.0133 18.1835 9.79765 18.214 9.61718 18.3897C9.58671 18.4179 9.56093 18.4507 9.53046 18.4812C9.35234 18.6687 9.17421 18.8562 8.99374 19.046C8.61171 19.4468 8.22968 19.8499 7.84999 20.2507C8.13359 20.2132 8.41718 20.178 8.70312 20.1405L5.79921 18.7554C5.66093 18.6897 5.52499 18.6241 5.38671 18.5585C5.5039 18.7601 5.61874 18.964 5.73593 19.1655C5.79218 18.6991 5.84843 18.2304 5.90468 17.764C5.93984 17.4663 5.97734 17.171 6.01249 16.8733C6.04062 16.6366 6.08515 16.4397 5.93281 16.2147C5.6539 15.8022 5.34921 15.4038 5.0539 15.0007C4.88749 14.7757 4.71874 14.6772 4.43984 14.6491C4.42109 14.6468 4.40468 14.6468 4.38593 14.6444L4.13984 14.6233C3.84687 14.5976 3.55156 14.5718 3.25859 14.546C2.72421 14.4991 2.18984 14.4499 1.65546 14.403C1.88046 14.5741 2.10781 14.7476 2.33281 14.9187C2.11484 13.8757 1.89687 12.8351 1.68124 11.7921C1.65078 11.6468 1.62031 11.5015 1.58984 11.3538L1.2664 12.1483C1.69999 11.9304 2.13593 11.7147 2.56953 11.4968L3.41328 11.0749C3.67578 10.9437 3.93828 10.8405 4.01093 10.503C4.12578 9.96397 4.20546 9.41553 4.30156 8.87412C4.33906 8.66084 4.37656 8.43584 4.24296 8.23897C4.21249 8.19209 4.17499 8.14756 4.13984 8.10303C3.97109 7.88037 3.80234 7.65772 3.63359 7.43272C3.28906 6.97803 2.94687 6.52568 2.60234 6.071C2.56484 6.35459 2.52968 6.63818 2.49218 6.92412C3.19999 6.04522 3.90546 5.16631 4.61328 4.2874C4.71171 4.16553 4.81015 4.04131 4.90859 3.91943C4.68124 3.98037 4.45156 4.03897 4.22421 4.0999C4.6414 4.26631 5.05859 4.43272 5.47577 4.60147C5.93281 4.78428 6.38515 4.99053 6.84921 5.1499C7.17031 5.2624 7.51953 5.01865 7.79843 4.87334C8.06562 4.73272 8.33515 4.59209 8.60234 4.45147C8.80156 4.34834 8.95156 4.20537 9.02421 3.97803C9.04062 3.92881 9.05234 3.87959 9.06874 3.83037C9.14609 3.57256 9.22109 3.31475 9.29843 3.05928C9.45546 2.52959 9.61249 1.9999 9.76953 1.47256C9.54453 1.64365 9.31718 1.81709 9.09218 1.98818H12.9336C12.7086 1.81709 12.4812 1.64365 12.2562 1.47256C12.3898 1.92021 12.5211 2.36787 12.6547 2.81787C12.7414 3.1085 12.8258 3.39678 12.9125 3.6874C12.9945 3.96631 13.0508 4.24756 13.3344 4.40928C13.7539 4.64834 14.1922 4.86865 14.6234 5.08428C14.9727 5.25772 15.1766 5.15225 15.4789 5.03272C15.7555 4.92256 16.0344 4.81006 16.3109 4.6999C16.8078 4.50068 17.3047 4.30147 17.8016 4.10459C17.5742 4.04365 17.3445 3.98506 17.1172 3.92412C17.825 4.80303 18.5305 5.68193 19.2383 6.56084C19.3367 6.68272 19.4352 6.80693 19.5336 6.92881C19.4961 6.64522 19.4609 6.36162 19.4234 6.07568C19.032 6.59365 18.6383 7.11162 18.2469 7.62959C18.0945 7.83115 17.9211 8.02803 17.7852 8.23897C17.6469 8.45693 17.6961 8.70068 17.7383 8.9374C17.7711 9.12022 17.8039 9.30068 17.8367 9.4835C17.8977 9.83037 17.9609 10.1772 18.0219 10.5218C18.0523 10.6858 18.207 10.8616 18.3453 10.9413C18.4953 11.0304 18.718 11.0679 18.8867 11.0116C19.0578 10.9577 19.2219 10.8522 19.3062 10.6882C19.3859 10.5077 19.3977 10.3366 19.3625 10.1421Z" fill="black"/>
<path d="M11 13.7936C10.8477 13.7936 10.6977 13.7842 10.5453 13.7631C10.6086 13.7725 10.6696 13.7795 10.7328 13.7889C10.4188 13.7467 10.1141 13.6647 9.82346 13.5404L9.99221 13.6108C9.79299 13.5264 9.60315 13.4233 9.42268 13.3037C9.3758 13.2733 9.33127 13.2404 9.2844 13.2076C9.18362 13.135 9.32893 13.2522 9.34065 13.2522C9.33127 13.2522 9.27737 13.2006 9.27034 13.1936C9.10584 13.0572 8.95441 12.9057 8.81799 12.7412C8.80159 12.7225 8.78518 12.7014 8.76877 12.6826C8.71721 12.6194 8.87659 12.8279 8.8133 12.7389C8.78049 12.6944 8.74768 12.6475 8.71487 12.6006C8.59065 12.4178 8.48518 12.2209 8.39846 12.0194L8.46877 12.1881C8.3469 11.8975 8.26252 11.5928 8.22034 11.2787C8.22971 11.342 8.23674 11.4029 8.24612 11.4662C8.20862 11.1639 8.20862 10.8592 8.24612 10.5569C8.23674 10.6201 8.22971 10.6811 8.22034 10.7444C8.26252 10.4303 8.34455 10.1256 8.46877 9.83498L8.39846 10.0037C8.48284 9.80451 8.58596 9.61467 8.70549 9.4342C8.73596 9.38732 8.76877 9.34279 8.80159 9.29592C8.87424 9.19514 8.75705 9.34045 8.75705 9.35217C8.75705 9.34279 8.80862 9.28889 8.81565 9.28185C8.95206 9.11736 9.1035 8.96593 9.26799 8.82951C9.28674 8.8131 9.30784 8.7967 9.32659 8.78029C9.38987 8.72873 9.18127 8.8881 9.27034 8.82482C9.31487 8.79201 9.36174 8.7592 9.40862 8.72639C9.59143 8.60217 9.7883 8.4967 9.98987 8.40998L9.82112 8.48029C10.1117 8.35842 10.4164 8.27404 10.7305 8.23185C10.6672 8.24123 10.6063 8.24826 10.543 8.25764C10.8453 8.22014 11.15 8.22014 11.4524 8.25764C11.3891 8.24826 11.3281 8.24123 11.2649 8.23185C11.5789 8.27404 11.8836 8.35607 12.1742 8.48029L12.0055 8.40998C12.2047 8.49435 12.3946 8.59748 12.575 8.71701C12.6219 8.74748 12.6664 8.78029 12.7133 8.8131C12.8141 8.88576 12.6688 8.76857 12.6571 8.76857C12.6664 8.76857 12.7203 8.82014 12.7274 8.82717C12.8919 8.96358 13.0433 9.11502 13.1797 9.27951C13.1961 9.29826 13.2125 9.31935 13.2289 9.3381C13.2805 9.40139 13.1211 9.19279 13.1844 9.28185C13.2172 9.32639 13.25 9.37326 13.2828 9.42014C13.4071 9.60295 13.5125 9.79982 13.5992 10.0014L13.5289 9.83264C13.6508 10.1233 13.7352 10.4279 13.7774 10.742C13.768 10.6787 13.761 10.6178 13.7516 10.5545C13.7891 10.8569 13.7891 11.1615 13.7516 11.4639C13.761 11.4006 13.768 11.3397 13.7774 11.2764C13.7352 11.5904 13.6531 11.8951 13.5289 12.1858L13.5992 12.017C13.5149 12.2162 13.4117 12.4061 13.2922 12.5865C13.2617 12.6334 13.2289 12.6779 13.1961 12.7248C13.1235 12.8256 13.2406 12.6779 13.2406 12.6686C13.2406 12.6779 13.1891 12.7319 13.1821 12.7389C13.0456 12.9034 12.8942 13.0548 12.7297 13.1912C12.711 13.2076 12.6899 13.224 12.6711 13.2404C12.6078 13.292 12.8164 13.1326 12.7274 13.1959C12.6828 13.2287 12.636 13.2615 12.5891 13.2944C12.4063 13.4186 12.2094 13.524 12.0078 13.6108L12.1766 13.5404C11.886 13.6623 11.5813 13.7467 11.2672 13.7889C11.3305 13.7795 11.3914 13.7725 11.4547 13.7631C11.3024 13.7819 11.1524 13.7912 11 13.7936C10.6321 13.7959 10.2805 14.1147 10.2969 14.4967C10.3133 14.8764 10.6063 15.2022 11 15.1998C11.8414 15.1951 12.7016 14.9444 13.3883 14.4498C14.1102 13.9295 14.6422 13.2381 14.9492 12.4037C15.5352 10.8123 15.0149 8.8881 13.7 7.81467C12.9992 7.24279 12.1813 6.90529 11.2766 6.83498C10.4375 6.76935 9.56096 6.98732 8.84143 7.42326C8.14534 7.84514 7.55237 8.48029 7.21487 9.22326C6.83518 10.0647 6.72268 10.967 6.9008 11.8764C7.2219 13.51 8.62815 14.8834 10.2781 15.1365C10.5172 15.174 10.7563 15.2022 11 15.2022C11.368 15.2045 11.7196 14.8764 11.7031 14.499C11.6867 14.1123 11.3938 13.7936 11 13.7936Z" fill="black"/>
</svg>
