<svg width="22" height="24" viewBox="0 0 22 24" fill="none" xmlns="http://www.w3.org/2000/svg">
<path d="M16.3568 10.3894V5.84746C16.3568 5.71747 16.2968 5.59733 16.2118 5.50232L11.1196 0.155109C11.0245 0.0551249 10.8895 0 10.7545 0H2.68106C1.19053 0 0 1.21547 0 2.70609V17.9725C0 19.4631 1.19053 20.6587 2.68101 20.6587H9.05379C10.2592 22.6594 12.4502 24 14.9462 24C18.7377 24 21.834 20.9187 21.834 17.1221C21.8392 13.8057 19.458 11.0346 16.3568 10.3894V10.3894ZM11.2548 1.75584L14.6711 5.35222H12.4552C11.7949 5.35222 11.2547 4.80707 11.2547 4.14684L11.2548 1.75584ZM2.68101 19.6582C1.74572 19.6582 1.0005 18.9078 1.0005 17.9725V2.70609C1.0005 1.76568 1.74572 1.0005 2.68101 1.0005H10.2543V4.14674C10.2543 5.36221 11.2397 6.35267 12.4552 6.35267H15.3563V10.2592C15.2063 10.2543 15.0862 10.2392 14.9562 10.2392C13.2105 10.2392 11.6048 10.9096 10.3943 11.96H4.0417C3.76649 11.96 3.54145 12.1851 3.54145 12.4601C3.54145 12.7354 3.76645 12.9603 4.0417 12.9603H9.46395C9.10873 13.4606 8.81356 13.9608 8.58364 14.5111H4.04165C3.76645 14.5111 3.5414 14.7361 3.5414 15.0113C3.5414 15.2863 3.7664 15.5116 4.04165 15.5116H8.25838C8.13331 16.0118 8.0683 16.567 8.0683 17.1222C8.0683 18.0225 8.24333 18.9129 8.55847 19.6633H2.68101V19.6582ZM14.9513 23.0046C11.7099 23.0046 9.07376 20.3684 9.07376 17.1271C9.07376 13.8858 11.7049 11.2496 14.9513 11.2496C18.1975 11.2496 20.8286 13.8858 20.8286 17.1271C20.8286 20.3684 18.1926 23.0046 14.9513 23.0046Z" fill="black"/>
<path d="M4.04169 10.4543H9.10874C9.38394 10.4543 9.60899 10.2291 9.60899 9.95406C9.60899 9.6789 9.38399 9.45386 9.10874 9.45386H4.04169C3.76649 9.45386 3.54144 9.67886 3.54144 9.95406C3.54144 10.2291 3.76644 10.4543 4.04169 10.4543ZM15.3063 13.4355C15.2113 13.3355 15.0813 13.2754 14.9412 13.2754C14.8011 13.2754 14.6711 13.3355 14.5761 13.4355L11.6448 16.5818C11.4547 16.7819 11.4697 17.102 11.6698 17.2871C11.87 17.4772 12.195 17.4621 12.3851 17.2622L14.456 15.0462V20.5085C14.456 20.7836 14.681 21.0087 14.9562 21.0087C15.2313 21.0087 15.4565 20.7837 15.4565 20.5085V15.0462L17.5122 17.2622C17.6123 17.3671 17.7424 17.4222 17.8775 17.4222C17.9974 17.4222 18.1175 17.3772 18.2175 17.2871C18.4177 17.097 18.4327 16.7819 18.2426 16.5818L15.3063 13.4355Z" fill="black"/>
</svg>
