<svg width="24" height="24" viewBox="0 0 24 24" fill="none" xmlns="http://www.w3.org/2000/svg">
<path d="M3.45977 16.705C3.43596 16.6619 3.40389 16.6239 3.3654 16.5932C3.3269 16.5624 3.28273 16.5396 3.23541 16.526C3.18808 16.5123 3.13853 16.5081 3.08959 16.5136C3.04064 16.5191 2.99326 16.5342 2.95015 16.558C2.90703 16.5818 2.86903 16.6139 2.83831 16.6524C2.80759 16.6909 2.78475 16.735 2.7711 16.7824C2.74353 16.8779 2.75506 16.9806 2.80315 17.0676C6.7069 24.2676 17.2946 24.2658 21.1969 17.0676C21.2421 16.9808 21.2516 16.8798 21.2234 16.7861C21.1951 16.6924 21.1313 16.6135 21.0457 16.5662C20.96 16.5188 20.8593 16.5069 20.7649 16.5328C20.6705 16.5587 20.5901 16.6205 20.5406 16.705C19.6986 18.2331 18.462 19.5073 16.9598 20.3947C15.4576 21.2821 13.7448 21.7502 12 21.7502C10.2553 21.7502 8.5425 21.2821 7.04028 20.3947C5.53807 19.5073 4.30183 18.2331 3.45977 16.705ZM19.395 5.65488C19.4597 5.73047 19.5517 5.77728 19.6509 5.78501C19.75 5.79275 19.8482 5.76078 19.9238 5.69613C19.9994 5.63148 20.0462 5.53946 20.0539 5.4403C20.0616 5.34114 20.0297 5.24297 19.965 5.16738C15.9529 0.310756 8.04677 0.311131 4.03502 5.16813C3.97316 5.24405 3.94345 5.34116 3.95225 5.4387C3.96105 5.53624 4.00766 5.62646 4.08211 5.69009C4.15656 5.75371 4.25294 5.78569 4.35066 5.77918C4.44838 5.77267 4.53967 5.72819 4.60502 5.65526C8.33027 1.14588 15.6701 1.14663 19.395 5.65526V5.65488Z" fill="black"/>
<path d="M7.09654 5.36875C7.01668 5.42803 6.96364 5.5166 6.94908 5.61499C6.93452 5.71337 6.95964 5.81351 7.01892 5.89337C7.0782 5.97324 7.16677 6.02628 7.26516 6.04084C7.36354 6.0554 7.46368 6.03028 7.54354 5.971C8.83444 5.01917 10.3962 4.50566 12 4.50566C13.6039 4.50566 15.1656 5.01917 16.4565 5.971C16.5364 6.03028 16.6365 6.0554 16.7349 6.04084C16.8333 6.02628 16.9219 5.97324 16.9812 5.89337C17.0404 5.81351 17.0656 5.71337 17.051 5.61499C17.0365 5.5166 16.9834 5.42803 16.9035 5.36875C15.4833 4.32125 13.7648 3.7561 12 3.7561C10.2353 3.7561 8.51684 4.32125 7.09654 5.36875ZM12 20.2499C13.2442 20.2524 14.4726 19.9718 15.5923 19.4294C16.712 18.887 17.6936 18.0969 18.4628 17.119C18.5246 17.041 18.5528 16.9417 18.5414 16.8429C18.5299 16.7441 18.4796 16.6539 18.4017 16.5921C18.3237 16.5304 18.2244 16.5021 18.1256 16.5136C18.0268 16.525 17.9366 16.5753 17.8748 16.6532C14.9985 20.4246 9.00117 20.4242 6.12529 16.6532C6.06353 16.5753 5.97333 16.525 5.87452 16.5136C5.77571 16.5021 5.67639 16.5304 5.59842 16.5921C5.52045 16.6539 5.4702 16.7441 5.45874 16.8429C5.44727 16.9417 5.47553 17.041 5.53729 17.119C6.30649 18.0969 7.28809 18.887 8.40777 19.4294C9.52746 19.9718 10.7559 20.2524 12 20.2499Z" fill="black"/>
<path d="M1.69802 12.9628C1.5661 13.2134 1.50074 13.4936 1.5082 13.7767C1.51567 14.0598 1.59571 14.3363 1.74065 14.5796C1.88559 14.8229 2.09058 15.0248 2.33598 15.1662C2.58138 15.3075 2.85897 15.3835 3.14214 15.3868H7.31514C7.31371 15.6343 7.36106 15.8797 7.45449 16.1089C7.54792 16.3381 7.6856 16.5466 7.85965 16.7226C8.03371 16.8985 8.24073 17.0385 8.46889 17.1344C8.69705 17.2304 8.94188 17.2804 9.18939 17.2817H14.8106C15.0585 17.2815 15.3038 17.2322 15.5324 17.1366C15.7611 17.0411 15.9686 16.9012 16.1428 16.725C16.3171 16.5488 16.4547 16.3398 16.5478 16.1101C16.6408 15.8804 16.6874 15.6346 16.6849 15.3868H20.8579C21.1411 15.3835 21.4186 15.3075 21.664 15.1662C21.9094 15.0248 22.1144 14.8229 22.2594 14.5796C22.4043 14.3363 22.4844 14.0598 22.4918 13.7767C22.4993 13.4936 22.4339 13.2134 22.302 12.9628C21.7894 12.0131 20.9406 11.289 19.9219 10.9325C20.2066 10.7132 20.4372 10.4315 20.596 10.109C20.7548 9.78654 20.8374 9.43196 20.8376 9.07254C20.7259 5.95629 16.2401 5.95629 16.1288 9.07254C16.1291 9.43202 16.2119 9.78664 16.3708 10.1091C16.5296 10.4316 16.7604 10.7133 17.0453 10.9325C16.126 11.2564 15.3433 11.8815 14.8241 12.7063C14.4351 12.4449 14.0115 12.2389 13.5656 12.0943C13.9216 11.8439 14.2121 11.5116 14.4128 11.1255C14.6135 10.7393 14.7184 10.3106 14.7188 9.87541C14.5913 6.27841 9.40877 6.27729 9.28127 9.87541C9.2816 10.3106 9.38653 10.7393 9.58721 11.1255C9.78789 11.5116 10.0784 11.8439 10.4344 12.0943C9.98841 12.2389 9.56472 12.4449 9.17552 12.7063C8.65543 11.8825 7.87317 11.2579 6.95477 10.9329C7.23963 10.7136 7.47039 10.4319 7.62928 10.1095C7.78817 9.78702 7.87096 9.4324 7.87127 9.07291C7.76327 5.95966 3.27227 5.95479 3.16239 9.07291C3.16267 9.43227 3.24537 9.78678 3.40412 10.1092C3.56288 10.4316 3.79346 10.7132 4.07814 10.9325C3.0595 11.2891 2.21069 12.0131 1.69802 12.9628ZM16.8788 9.07254C16.8852 8.65126 17.0571 8.24942 17.3573 7.95379C17.6575 7.65815 18.0619 7.49244 18.4832 7.49244C18.9045 7.49244 19.3089 7.65815 19.6091 7.95379C19.9093 8.24942 20.0812 8.65126 20.0876 9.07254C20.0812 9.49381 19.9093 9.89566 19.6091 10.1913C19.3089 10.4869 18.9045 10.6526 18.4832 10.6526C18.0619 10.6526 17.6575 10.4869 17.3573 10.1913C17.0571 9.89566 16.8852 9.49381 16.8788 9.07254ZM18.4804 11.4272C19.1292 11.4266 19.7659 11.6023 20.3227 11.9353C20.8794 12.2684 21.3353 12.7464 21.6416 13.3183C21.7134 13.4545 21.749 13.6068 21.7451 13.7606C21.7412 13.9145 21.6978 14.0648 21.6191 14.1971C21.5405 14.3294 21.4292 14.4393 21.2959 14.5163C21.1626 14.5933 21.0118 14.6348 20.8579 14.6368H16.5184C16.2486 14.0817 15.8746 13.5836 15.4166 13.1698C15.7342 12.6402 16.183 12.2015 16.7197 11.8962C17.2565 11.591 17.8629 11.4294 18.4804 11.4272ZM10.0316 9.87541C10.1141 7.27366 13.8863 7.27441 13.9684 9.87541C13.8859 12.4772 10.1138 12.4768 10.0316 9.87541ZM15.8003 14.8667C15.8911 15.0386 15.9363 15.231 15.9315 15.4253C15.9266 15.6197 15.8719 15.8096 15.7725 15.9768C15.6732 16.1439 15.5325 16.2828 15.3641 16.3799C15.1957 16.4771 15.0051 16.5293 14.8106 16.5317H9.18939C8.99417 16.5313 8.80239 16.4803 8.63279 16.3837C8.46319 16.287 8.32158 16.148 8.22181 15.9802C8.12204 15.8124 8.06752 15.6215 8.06359 15.4264C8.05966 15.2312 8.10646 15.0383 8.19939 14.8667C9.77139 11.8584 14.229 11.8588 15.8003 14.8667ZM3.91239 9.07291C3.91883 8.65164 4.0907 8.2498 4.39089 7.95416C4.69108 7.65853 5.0955 7.49282 5.51683 7.49282C5.93815 7.49282 6.34257 7.65853 6.64276 7.95416C6.94295 8.2498 7.11483 8.65164 7.12127 9.07291C7.11483 9.49419 6.94295 9.89603 6.64276 10.1917C6.34257 10.4873 5.93815 10.653 5.51683 10.653C5.0955 10.653 4.69108 10.4873 4.39089 10.1917C4.0907 9.89603 3.91883 9.49419 3.91239 9.07291ZM5.51364 11.4272C6.13207 11.4289 6.73958 11.5903 7.27737 11.8956C7.81516 12.201 8.26501 12.64 8.58339 13.1702C8.1255 13.5839 7.75146 14.0818 7.48164 14.6368H3.14252C2.98861 14.6348 2.83779 14.5933 2.7045 14.5163C2.57121 14.4393 2.45992 14.3294 2.38127 14.1971C2.30262 14.0648 2.25925 13.9145 2.25531 13.7606C2.25137 13.6068 2.28699 13.4545 2.35877 13.3183C2.66458 12.7473 3.11945 12.27 3.67499 11.937C4.23053 11.604 4.86594 11.4278 5.51364 11.4272Z" fill="black"/>
</svg>
