<svg width="552" height="552" viewBox="0 0 552 552" fill="none" xmlns="http://www.w3.org/2000/svg">
<path d="M275.6 525.6C413.671 525.6 525.6 413.671 525.6 275.6C525.6 137.529 413.671 25.6001 275.6 25.6001C137.529 25.6001 25.6001 137.529 25.6001 275.6C25.6001 413.671 137.529 525.6 275.6 525.6Z" stroke="black" stroke-width="51.2"/>
<path d="M377.354 117.113L362.431 108.497C354.807 104.095 345.058 106.707 340.657 114.331L294.991 193.426C290.59 201.05 293.202 210.799 300.826 215.2L315.749 223.816C323.373 228.218 333.122 225.606 337.523 217.982L383.189 138.887C387.59 131.263 384.978 121.515 377.354 117.113Z" fill="black"/>
<path d="M365.82 268.057L237.477 193.959C229.853 189.557 220.105 192.169 215.703 199.793L204.933 218.448C200.531 226.072 203.143 235.82 210.767 240.222L339.11 314.32C346.734 318.722 356.482 316.11 360.884 308.486L371.654 289.832C376.056 282.208 373.443 272.459 365.82 268.057Z" fill="black"/>
<path fill-rule="evenodd" clip-rule="evenodd" d="M191.236 242.172C156.564 299.61 116.896 324.266 77.9855 353.876C94.1418 373.129 111.552 389.757 129.953 404.29L190.158 345.722L149.812 418.865C197.404 451.444 250.845 471.706 307.065 486.135C302.424 430.701 321.612 380.728 347.193 332.213L191.236 242.172Z" fill="black"/>
<path d="M349.406 197.402L306.874 172.846L287.022 207.23L329.554 231.786L349.406 197.402Z" fill="black"/>
</svg>
