<svg width="28" height="28" viewBox="0 0 28 28" fill="none" xmlns="http://www.w3.org/2000/svg">
<path d="M22.3304 7.57006C22.3304 7.57006 22.6004 6.77006 22.0204 6.21006C21.4904 5.69006 20.8004 5.97006 20.8004 5.97006C20.1904 6.27006 15.0404 9.44006 13.1304 11.5401C12.2704 12.5001 11.0704 15.3301 12.0404 16.3601C12.9604 17.3401 16.0004 16.1901 16.8304 15.3601C18.8904 13.3001 22.0404 8.19006 22.3304 7.57006ZM5.40039 21.6501C7.77039 20.0901 6.86039 18.2401 8.63039 17.0101C9.56039 16.3601 10.8504 16.3901 11.7104 17.3001C12.3404 17.9701 12.5104 19.8701 11.5504 20.7601C9.98039 22.2101 7.55039 22.3101 5.40039 21.6501Z" fill="white"/>
<rect x="0.5" y="0.5" width="27" height="27" rx="3.5" stroke="white"/>
</svg>
