<svg width="25" height="24" viewBox="0 0 25 24" fill="none" xmlns="http://www.w3.org/2000/svg">
<path d="M11.3304 2.9227C11.7041 1.30854 13.3252 0.257936 14.9512 0.576117L21.2565 1.80994C22.8825 2.12812 23.8978 3.6946 23.5241 5.30876L20.5506 18.1527C20.1769 19.7668 18.5558 20.8174 16.9298 20.4993L10.6245 19.2654C8.99849 18.9473 7.98328 17.3808 8.35697 15.7666L11.3304 2.9227Z" fill="white"/>
<path d="M9.34888 2.74854C9.61287 2.70571 9.87516 2.7011 10.1311 2.72607C10.1116 2.79054 10.0938 2.85594 10.0784 2.92236L6.91333 16.5942C6.53967 18.2083 7.555 19.775 9.18091 20.0933L15.0149 21.2339C14.5804 21.8337 13.9168 22.269 13.1165 22.3989L6.21802 23.519C4.58264 23.7845 3.00376 22.6803 2.69165 21.0532L0.0539551 7.29541C-0.257988 5.66824 0.815029 4.13412 2.45044 3.86865L9.34888 2.74854Z" fill="white"/>
</svg>
