<svg width="19" height="24" viewBox="0 0 19 24" fill="none" xmlns="http://www.w3.org/2000/svg">
<path d="M8.3125 18H10.6875V10.8H8.3125V18ZM9.5 8.4C9.83646 8.4 10.1187 8.2848 10.3467 8.0544C10.5747 7.824 10.6883 7.5392 10.6875 7.2C10.6867 6.8608 10.5727 6.576 10.3455 6.3456C10.1183 6.1152 9.83646 6 9.5 6C9.16354 6 8.88171 6.1152 8.6545 6.3456C8.42729 6.576 8.31329 6.8608 8.3125 7.2C8.31171 7.5392 8.42571 7.8244 8.6545 8.0556C8.88329 8.2868 9.16512 8.4016 9.5 8.4ZM9.5 24C6.74896 23.3 4.47767 21.7048 2.68613 19.2144C0.894584 16.724 -0.000791142 13.9592 5.24514e-07 10.92V3.6L9.5 0L19 3.6V10.92C19 13.96 18.1046 16.7252 16.3139 19.2156C14.5231 21.706 12.2518 23.3008 9.5 24Z" fill="white"/>
</svg>
