<svg width="24" height="24" viewBox="0 0 24 24" fill="none" xmlns="http://www.w3.org/2000/svg">
<path d="M0 24V2.4C0 1.74 0.2352 1.1752 0.7056 0.7056C1.176 0.236 1.7408 0.0008 2.4 0H21.6C22.26 0 22.8252 0.2352 23.2956 0.7056C23.766 1.176 24.0008 1.7408 24 2.4V16.8C24 17.46 23.7652 18.0252 23.2956 18.4956C22.826 18.966 22.2608 19.2008 21.6 19.2H4.8L0 24ZM12 15.6C12.34 15.6 12.6252 15.4848 12.8556 15.2544C13.086 15.024 13.2008 14.7392 13.2 14.4C13.1992 14.0608 13.084 13.776 12.8544 13.5456C12.6248 13.3152 12.34 13.2 12 13.2C11.66 13.2 11.3752 13.3152 11.1456 13.5456C10.916 13.776 10.8008 14.0608 10.8 14.4C10.7992 14.7392 10.9144 15.0244 11.1456 15.2556C11.3768 15.4868 11.6616 15.6016 12 15.6ZM10.8 10.8H13.2V3.6H10.8V10.8Z" fill="white"/>
</svg>
