<svg width="24" height="21" viewBox="0 0 24 21" fill="none" xmlns="http://www.w3.org/2000/svg">
<path d="M21.7142 1.10019C22.3205 1.10019 22.9018 1.33201 23.3305 1.74467C23.7592 2.15732 24 2.71699 24 3.30057V18.7032C24 19.2868 23.7592 19.8465 23.3305 20.2591C22.9018 20.6718 22.3205 20.9036 21.7142 20.9036H3.4281C2.82188 20.9036 2.24049 20.6718 1.81182 20.2591C1.38316 19.8465 1.14234 19.2868 1.14234 18.7032V12.1021C1.14234 11.8103 1.26275 11.5305 1.47708 11.3241C1.69141 11.1178 1.98211 11.0019 2.28522 11.0019C2.58833 11.0019 2.87903 11.1178 3.09336 11.3241C3.30769 11.5305 3.4281 11.8103 3.4281 12.1021V14.4125L9.13681 8.91814C9.26947 8.79039 9.42697 8.68906 9.60032 8.61993C9.77367 8.55079 9.95947 8.51521 10.1471 8.51521C10.3348 8.51521 10.5206 8.55079 10.6939 8.61993C10.8673 8.68906 11.0248 8.79039 11.1574 8.91814L15.8032 13.3915L17.2181 12.0295C17.3508 11.9017 17.5083 11.8004 17.6817 11.7313C17.855 11.6621 18.0408 11.6265 18.2284 11.6265C18.4161 11.6265 18.6019 11.6621 18.7752 11.7313C18.9486 11.8004 19.1061 11.9017 19.2387 12.0295L21.7142 14.4136V3.30057H12.5712C12.2681 3.30057 11.9774 3.18466 11.763 2.97833C11.5487 2.772 11.4283 2.49217 11.4283 2.20038C11.4283 1.90859 11.5487 1.62875 11.763 1.42243C11.9774 1.2161 12.2681 1.10019 12.5712 1.10019H21.7142ZM4.57099 0C4.7848 -4.58402e-07 4.99432 0.0577359 5.17575 0.166647C5.35717 0.275559 5.50322 0.431277 5.5973 0.616106L5.65216 0.744828L5.80073 1.1607C5.95754 1.60318 6.2102 2.00854 6.542 2.34994C6.87379 2.69134 7.27714 2.961 7.72535 3.14104L7.93678 3.21805L8.36879 3.35998C8.58266 3.43036 8.77006 3.56021 8.90727 3.73312C9.04449 3.90602 9.12537 4.1142 9.13968 4.33135C9.15399 4.5485 9.1011 4.76486 8.98768 4.95307C8.87427 5.14128 8.70543 5.29289 8.50251 5.38873L8.36879 5.44154L7.93678 5.58456C7.47713 5.73551 7.05604 5.97874 6.70139 6.29814C6.34674 6.61754 6.06662 7.00582 5.87959 7.43728L5.79959 7.64082L5.65216 8.05669C5.57904 8.26257 5.44415 8.44297 5.26454 8.57506C5.08493 8.70715 4.86866 8.78501 4.64309 8.79878C4.41751 8.81256 4.19276 8.76164 3.99725 8.65246C3.80173 8.54328 3.64424 8.38075 3.54468 8.18541L3.48982 8.05669L3.34125 7.64082C3.18444 7.19834 2.93177 6.79298 2.59998 6.45157C2.26818 6.11017 1.86483 5.84052 1.41663 5.66047L1.2052 5.58346L0.773187 5.44154C0.559312 5.37115 0.371918 5.2413 0.234701 5.0684C0.0974844 4.8955 0.0166066 4.68731 0.0022941 4.47016C-0.0120184 4.25302 0.0408773 4.03666 0.154293 3.84845C0.267708 3.66024 0.43655 3.50863 0.63947 3.41279L0.773187 3.35998L1.2052 3.21695C1.66485 3.06601 2.08594 2.82278 2.44059 2.50338C2.79524 2.18398 3.07535 1.79569 3.26239 1.36423L3.34239 1.1607L3.48982 0.744828C3.56682 0.527637 3.71245 0.339062 3.90632 0.205504C4.10019 0.071946 4.33259 9.15657e-05 4.57099 0ZM16.5713 5.50095C17.0259 5.50095 17.462 5.67482 17.7835 5.9843C18.105 6.29379 18.2856 6.71355 18.2856 7.15123C18.2856 7.58891 18.105 8.00867 17.7835 8.31816C17.462 8.62765 17.0259 8.80152 16.5713 8.80152C16.1166 8.80152 15.6805 8.62765 15.359 8.31816C15.0375 8.00867 14.8569 7.58891 14.8569 7.15123C14.8569 6.71355 15.0375 6.29379 15.359 5.9843C15.6805 5.67482 16.1166 5.50095 16.5713 5.50095Z" fill="#999999"/>
</svg>
