<svg width="24" height="24" viewBox="0 0 24 24" fill="none" xmlns="http://www.w3.org/2000/svg">
<path d="M12 0C9.62663 0 7.30655 0.703787 5.33316 2.02236C3.35977 3.34094 1.8217 5.21508 0.913451 7.4078C0.00519937 9.60051 -0.232441 12.0133 0.230582 14.3411C0.693604 16.6689 1.83649 18.807 3.51472 20.4853C5.19295 22.1635 7.33115 23.3064 9.65892 23.7694C11.9867 24.2324 14.3995 23.9948 16.5922 23.0865C18.7849 22.1783 20.6591 20.6402 21.9776 18.6668C23.2962 16.6934 24 14.3734 24 12C24 8.8174 22.7357 5.76515 20.4853 3.51472C18.2348 1.26428 15.1826 0 12 0ZM12.045 13.26C11.9183 13.261 11.7927 13.2369 11.6753 13.1891C11.558 13.1413 11.4513 13.0707 11.3613 12.9815C11.2714 12.8922 11.2 12.7861 11.1513 12.6691C11.1026 12.5521 11.0775 12.4267 11.0775 12.3V4.9875C11.0775 4.7309 11.1794 4.48481 11.3609 4.30337C11.5423 4.12193 11.7884 4.02 12.045 4.02C12.3016 4.02 12.5477 4.12193 12.7291 4.30337C12.9106 4.48481 13.0125 4.7309 13.0125 4.9875V12.3C13.0125 12.4267 12.9874 12.5521 12.9387 12.6691C12.89 12.7861 12.8186 12.8922 12.7287 12.9815C12.6387 13.0707 12.532 13.1413 12.4147 13.1891C12.2973 13.2369 12.1717 13.261 12.045 13.26ZM12 19.3425C10.4204 19.3612 8.87608 18.8745 7.59253 17.9536C6.30899 17.0326 5.35336 15.7256 4.86512 14.2232C4.37687 12.7207 4.38157 11.1016 4.87851 9.60205C5.37546 8.10249 6.33864 6.801 7.6275 5.8875C7.85199 5.72749 8.13041 5.66218 8.40263 5.70568C8.67486 5.74918 8.91906 5.898 9.0825 6.12C9.16229 6.22963 9.2196 6.35397 9.25111 6.48585C9.28262 6.61774 9.28771 6.75455 9.2661 6.88841C9.24449 7.02227 9.19659 7.15053 9.12518 7.26579C9.05377 7.38106 8.96024 7.48105 8.85 7.56C8.10866 8.10444 7.51912 8.82971 7.13761 9.66664C6.75609 10.5036 6.5953 11.4243 6.67058 12.341C6.74585 13.2577 7.05468 14.1398 7.56762 14.9033C8.08056 15.6668 8.78051 16.2862 9.60074 16.7024C10.421 17.1186 11.3341 17.3178 12.2532 17.281C13.1722 17.2441 14.0665 16.9725 14.8508 16.4919C15.6351 16.0114 16.2832 15.338 16.7334 14.5359C17.1836 13.7338 17.4208 12.8298 17.4225 11.91C17.42 11.0625 17.2144 10.228 16.8229 9.47636C16.4314 8.72472 15.8655 8.07786 15.1725 7.59C14.9591 7.4216 14.8212 7.17552 14.7888 6.90563C14.7565 6.63573 14.8324 6.36403 15 6.15C15.1657 5.93035 15.4109 5.78451 15.683 5.74383C15.9551 5.70316 16.2323 5.7709 16.455 5.9325C17.7304 6.85646 18.6782 8.16275 19.161 9.66184C19.6438 11.1609 19.6364 12.7749 19.1398 14.2694C18.6433 15.764 17.6835 17.0616 16.3997 17.9738C15.1158 18.886 13.5747 19.3654 12 19.3425Z" fill="black"/>
</svg>
