<svg width="21" height="24" viewBox="0 0 21 24" fill="none" xmlns="http://www.w3.org/2000/svg">
<path d="M10.5 11.4717C9.6 11.4717 9 12.0755 9 12.9811C9 13.5849 9.45 14.0377 9.9 14.1887L9.45 16.3019H11.4L10.95 14.1887C11.55 14.0377 11.85 13.5849 11.85 12.9811C12 12.0755 11.4 11.4717 10.5 11.4717ZM10.65 4.98113C9.6 4.98113 8.55 5.73585 8.55 6.79245V9.0566H12.6V6.79245C12.45 5.73585 11.7 4.98113 10.65 4.98113ZM10.5 0L0 4.5283V9.0566C0.15 15.6981 4.35 21.5849 10.5 24C16.65 21.5849 20.85 15.6981 21 9.0566V4.5283L10.5 0ZM16.5 16.6038C16.5 17.5094 15.9 18.1132 15 18.1132H6C5.1 18.1132 4.5 17.5094 4.5 16.6038V10.566C4.5 9.66038 5.1 9.0566 6 9.0566H6.45V6.79245C6.6 4.67925 8.4 3.01887 10.5 3.01887C12.6 3.01887 14.4 4.67925 14.55 6.79245V9.0566H15C15.9 9.0566 16.5 9.66038 16.5 10.566V16.6038Z" fill="white"/>
</svg>
