<svg width="21" height="24" viewBox="0 0 21 24" fill="none" xmlns="http://www.w3.org/2000/svg">
<path d="M0 13.7143C0 10.9863 1.10624 8.37013 3.07537 6.44119C5.04449 4.51224 7.7152 3.42857 10.5 3.42857V0L15.0383 4.44571L15.2016 4.52571L10.5 9.14286L10.5 5.71429C8.33404 5.71429 6.25682 6.55714 4.72528 8.05743C3.19374 9.55772 2.33333 11.5926 2.33333 13.7143C2.33333 15.836 3.19374 17.8708 4.72528 19.3711C6.25682 20.8714 8.33404 21.7143 10.5 21.7143C12.6659 21.7143 14.7431 20.8714 16.2746 19.3711C17.8062 17.8708 18.6666 15.836 18.6666 13.7143C18.6666 11.5086 17.7449 9.50857 16.2633 8.06857L17.9199 6.44571C18.9004 7.39612 19.6778 8.52839 20.2066 9.77637C20.7355 11.0244 21.0051 12.3631 20.9999 13.7143C20.9999 16.4422 19.8937 19.0584 17.9246 20.9874C15.9554 22.9163 13.2847 24 10.5 24C7.7152 24 5.04449 22.9163 3.07537 20.9874C1.10624 19.0584 0 16.4422 0 13.7143Z" fill="white"/>
</svg>
