<svg width="24" height="19" viewBox="0 0 24 19" fill="none" xmlns="http://www.w3.org/2000/svg">
<path d="M24 4.35417C24 3.6193 23.705 2.91453 23.1799 2.3949C22.6548 1.87526 21.9426 1.58334 21.2 1.58334H10.2055C9.96875 1.58406 9.73712 1.51517 9.54 1.38542L8.15 0.465604C7.68971 0.161017 7.14821 -0.00106705 6.5945 5.28658e-06H2.8C2.05739 5.28658e-06 1.3452 0.291932 0.820101 0.811563C0.294999 1.3312 0 2.03597 0 2.77084V5.14584C0 5.25082 0.0421427 5.3515 0.117157 5.42573C0.192172 5.49997 0.293913 5.54167 0.4 5.54167H23.6C23.7061 5.54167 23.8078 5.49997 23.8828 5.42573C23.9579 5.3515 24 5.25082 24 5.14584V4.35417ZM0 16.2292C0 16.964 0.294999 17.6688 0.820101 18.1884C1.3452 18.7081 2.05739 19 2.8 19H21.2C21.9426 19 22.6548 18.7081 23.1799 18.1884C23.705 17.6688 24 16.964 24 16.2292V7.52084C24 7.41585 23.9579 7.31517 23.8828 7.24094C23.8078 7.16671 23.7061 7.125 23.6 7.125H0.4C0.293913 7.125 0.192172 7.16671 0.117157 7.24094C0.0421427 7.31517 0 7.41585 0 7.52084V16.2292Z" fill="white"/>
</svg>
