<svg width="564" height="532" viewBox="0 0 564 532" fill="none" xmlns="http://www.w3.org/2000/svg">
<path d="M486.444 31.8333H77.2232C52.1552 31.8333 31.8335 51.2682 31.8335 75.2423V423.197C31.8335 447.171 52.1552 466.606 77.2232 466.606H486.444C511.512 466.606 531.833 447.171 531.833 423.197V75.2423C531.833 51.2682 511.512 31.8333 486.444 31.8333Z" stroke="#020202" stroke-width="63.6667" stroke-miterlimit="10"/>
<path d="M100.037 531.833V466.606" stroke="#020202" stroke-width="63.6667" stroke-miterlimit="10"/>
<path d="M463.63 531.833V466.606" stroke="#020202" stroke-width="63.6667" stroke-miterlimit="10"/>
<path d="M236.444 357.97C299.18 357.97 350.037 309.332 350.037 249.333C350.037 189.335 299.18 140.697 236.444 140.697C173.708 140.697 122.851 189.335 122.851 249.333C122.851 309.332 173.708 357.97 236.444 357.97Z" stroke="#020202" stroke-width="63.6667" stroke-miterlimit="10"/>
<path d="M418.24 205.697H463.63" stroke="#020202" stroke-width="63.6667" stroke-miterlimit="10"/>
<path d="M418.24 292.742H463.63" stroke="#020202" stroke-width="63.6667" stroke-miterlimit="10"/>
<path d="M418.24 379.561H463.63" stroke="#020202" stroke-width="63.6667" stroke-miterlimit="10"/>
<path d="M236.444 97.0605V249.333" stroke="#020202" stroke-width="63.6667" stroke-miterlimit="10"/>
<path d="M100.037 357.97L236.443 249.333" stroke="#020202" stroke-width="63.6667" stroke-miterlimit="10"/>
<path d="M372.851 357.97L236.444 249.333" stroke="#020202" stroke-width="63.6667" stroke-miterlimit="10"/>
</svg>
